<?xml version="1.0" encoding="utf-8"?>
<!-- Generator: Adobe Illustrator 26.3.1, SVG Export Plug-In . SVG Version: 6.00 Build 0)  -->
<svg version="1.1" id="Layer_1" xmlns="http://www.w3.org/2000/svg" xmlns:xlink="http://www.w3.org/1999/xlink" x="0px" y="0px"
	 viewBox="0 0 362.68 257.52" style="enable-background:new 0 0 362.68 257.52;" xml:space="preserve">
<style type="text/css">
	.st0{enable-background:new    ;}
	.st1{fill:#414042;}
	.st2{filter:url(#Adobe_OpacityMaskFilter);}
	.st3{clip-path:url(#SVGID_00000167392569924391237480000007737025806080062893_);}
	.st4{clip-path:url(#SVGID_00000149377368778852049260000001562478370764928915_);}
	
		.st5{clip-path:url(#SVGID_00000159436514629879730530000010357820700149889465_);fill:url(#SVGID_00000111905756195478667030000001590822753401189279_);}
	
		.st6{clip-path:url(#SVGID_00000167392569924391237480000007737025806080062893_);mask:url(#SVGID_00000072980723114020129600000005105069018605308044_);fill:url(#SVGID_00000160909030279142096870000015512751484927913916_);}
	.st7{clip-path:url(#SVGID_00000055702383248332641130000011483420402602388108_);fill:#F7514D;}
	.st8{fill-rule:evenodd;clip-rule:evenodd;fill:#BE1E2D;}
	.st9{fill-rule:evenodd;clip-rule:evenodd;fill:#FF5D45;}
	.st10{fill-rule:evenodd;clip-rule:evenodd;fill:#FF813F;}
	.st11{fill-rule:evenodd;clip-rule:evenodd;fill:#F0454E;}
	.st12{fill-rule:evenodd;clip-rule:evenodd;fill:#B7202E;}
	.st13{fill-rule:evenodd;clip-rule:evenodd;fill:#FC584E;}
	.st14{fill-rule:evenodd;clip-rule:evenodd;fill:#FF6B3E;}
	.st15{fill:#6A6D70;}
	.st16{fill:none;stroke:#F15A29;stroke-width:0.5;stroke-miterlimit:10;}
</style>
<g>
	<g class="st0">
		<path class="st1" d="M156.27,178.87c-0.26,0.2-0.53,0.36-0.83,0.5c-0.29,0.14-0.61,0.25-0.95,0.33s-0.71,0.12-1.13,0.12
			c-0.66,0-1.26-0.12-1.82-0.36c-0.55-0.24-1.04-0.57-1.44-0.99s-0.73-0.92-0.96-1.49c-0.23-0.57-0.34-1.19-0.34-1.84
			s0.11-1.26,0.34-1.83s0.55-1.07,0.96-1.5s0.89-0.77,1.46-1.01c0.56-0.25,1.18-0.37,1.85-0.37c0.42,0,0.79,0.04,1.12,0.1
			s0.64,0.17,0.93,0.29c0.29,0.13,0.55,0.28,0.79,0.46c0.24,0.18,0.48,0.38,0.7,0.59l-0.7,0.75c-0.39-0.36-0.81-0.66-1.25-0.9
			c-0.45-0.23-0.98-0.35-1.6-0.35c-0.5,0-0.97,0.09-1.4,0.29c-0.43,0.19-0.8,0.45-1.12,0.79c-0.32,0.34-0.56,0.73-0.74,1.19
			c-0.18,0.46-0.27,0.95-0.27,1.47s0.09,1.02,0.27,1.48c0.18,0.46,0.42,0.86,0.74,1.2s0.69,0.6,1.12,0.8
			c0.43,0.19,0.89,0.29,1.4,0.29c0.62,0,1.16-0.11,1.61-0.34s0.89-0.55,1.33-0.97l0.68,0.66
			C156.77,178.45,156.53,178.67,156.27,178.87z"/>
		<path class="st1" d="M164.83,177.64c-0.18,0.43-0.42,0.8-0.73,1.12s-0.68,0.57-1.12,0.76c-0.43,0.19-0.9,0.28-1.4,0.28
			s-0.97-0.09-1.39-0.28s-0.79-0.44-1.1-0.75s-0.55-0.69-0.73-1.11s-0.26-0.88-0.26-1.35s0.09-0.93,0.26-1.36
			c0.17-0.43,0.42-0.8,0.73-1.12c0.31-0.32,0.68-0.57,1.11-0.76c0.43-0.19,0.9-0.28,1.41-0.28c0.5,0,0.97,0.09,1.4,0.28
			s0.8,0.44,1.11,0.75c0.31,0.32,0.55,0.69,0.73,1.11c0.17,0.42,0.26,0.88,0.26,1.35C165.09,176.76,165,177.22,164.83,177.64z
			 M163.88,175.28c-0.13-0.32-0.3-0.6-0.53-0.84c-0.23-0.24-0.49-0.43-0.79-0.56c-0.3-0.14-0.63-0.21-0.99-0.21s-0.7,0.07-1,0.2
			c-0.3,0.13-0.56,0.32-0.77,0.56c-0.21,0.24-0.38,0.51-0.5,0.83s-0.18,0.65-0.18,1.02s0.06,0.7,0.19,1.02s0.3,0.6,0.52,0.83
			s0.48,0.42,0.79,0.56c0.3,0.14,0.63,0.21,0.99,0.21s0.7-0.07,1-0.2c0.3-0.13,0.56-0.32,0.78-0.55s0.39-0.51,0.51-0.82
			c0.12-0.32,0.18-0.65,0.18-1.02C164.06,175.94,164,175.6,163.88,175.28z"/>
		<path class="st1" d="M167.9,179.65h-1v-6.72h1v1.17c0.23-0.36,0.52-0.67,0.88-0.93c0.36-0.25,0.84-0.38,1.42-0.38
			c0.41,0,0.77,0.06,1.08,0.19c0.32,0.13,0.58,0.31,0.81,0.55c0.22,0.24,0.39,0.52,0.51,0.85s0.18,0.69,0.18,1.09v4.17h-1v-3.92
			c0-0.62-0.16-1.12-0.48-1.48c-0.32-0.36-0.78-0.55-1.38-0.55c-0.29,0-0.55,0.05-0.8,0.15c-0.25,0.1-0.46,0.24-0.64,0.43
			c-0.18,0.19-0.32,0.41-0.42,0.67s-0.15,0.55-0.15,0.86L167.9,179.65L167.9,179.65z"/>
		<path class="st1" d="M175.9,179.65h-1v-6.72h1v1.17c0.23-0.36,0.52-0.67,0.88-0.93c0.36-0.25,0.84-0.38,1.42-0.38
			c0.41,0,0.77,0.06,1.08,0.19c0.32,0.13,0.58,0.31,0.81,0.55c0.22,0.24,0.39,0.52,0.51,0.85s0.18,0.69,0.18,1.09v4.17h-1v-3.92
			c0-0.62-0.16-1.12-0.48-1.48c-0.32-0.36-0.78-0.55-1.38-0.55c-0.29,0-0.55,0.05-0.8,0.15c-0.25,0.1-0.46,0.24-0.64,0.43
			c-0.18,0.19-0.32,0.41-0.42,0.67s-0.15,0.55-0.15,0.86L175.9,179.65L175.9,179.65z"/>
		<path class="st1" d="M183.78,177.63c0.14,0.28,0.32,0.52,0.53,0.71c0.22,0.19,0.46,0.34,0.73,0.44s0.55,0.15,0.84,0.15
			c0.47,0,0.87-0.09,1.2-0.26s0.64-0.4,0.92-0.69l0.62,0.56c-0.34,0.38-0.72,0.69-1.16,0.92c-0.43,0.23-0.97,0.34-1.61,0.34
			c-0.46,0-0.89-0.08-1.3-0.25s-0.76-0.41-1.07-0.71c-0.3-0.31-0.55-0.68-0.73-1.11c-0.18-0.43-0.27-0.91-0.27-1.43
			c0-0.49,0.08-0.94,0.24-1.37s0.38-0.8,0.67-1.12c0.29-0.32,0.63-0.56,1.02-0.75c0.39-0.18,0.83-0.27,1.29-0.27
			c0.49,0,0.94,0.09,1.33,0.28s0.72,0.44,0.99,0.76c0.27,0.32,0.47,0.7,0.61,1.13c0.14,0.43,0.21,0.9,0.21,1.39
			c0,0.04,0,0.09,0,0.14s0,0.11-0.01,0.17h-5.32C183.55,177.03,183.64,177.35,183.78,177.63z M187.82,175.92
			c-0.03-0.3-0.09-0.59-0.19-0.87s-0.24-0.52-0.41-0.73c-0.18-0.21-0.39-0.38-0.65-0.5c-0.25-0.13-0.55-0.19-0.88-0.19
			c-0.29,0-0.56,0.06-0.81,0.17c-0.25,0.12-0.47,0.28-0.66,0.48s-0.34,0.44-0.46,0.72c-0.12,0.28-0.2,0.58-0.23,0.91L187.82,175.92
			L187.82,175.92z"/>
		<path class="st1" d="M195.22,179.44c-0.43,0.25-0.96,0.37-1.59,0.37c-0.49,0-0.95-0.09-1.37-0.28s-0.78-0.44-1.09-0.75
			c-0.31-0.32-0.55-0.69-0.72-1.11s-0.26-0.88-0.26-1.35s0.09-0.93,0.26-1.36c0.17-0.43,0.41-0.8,0.72-1.12
			c0.31-0.32,0.67-0.57,1.09-0.76c0.42-0.19,0.88-0.28,1.37-0.28c0.32,0,0.61,0.03,0.87,0.09s0.5,0.15,0.71,0.25
			c0.22,0.11,0.42,0.24,0.6,0.38s0.35,0.3,0.51,0.47l-0.66,0.7c-0.27-0.28-0.56-0.52-0.88-0.71s-0.7-0.3-1.16-0.3
			c-0.34,0-0.65,0.07-0.95,0.2c-0.29,0.13-0.55,0.32-0.77,0.56c-0.22,0.24-0.38,0.51-0.51,0.83c-0.12,0.32-0.18,0.65-0.18,1.02
			s0.06,0.7,0.19,1.02s0.3,0.6,0.52,0.84c0.22,0.24,0.48,0.42,0.78,0.56c0.3,0.13,0.63,0.2,0.98,0.2c0.43,0,0.82-0.09,1.15-0.29
			c0.33-0.19,0.63-0.43,0.9-0.71l0.64,0.6C196.03,178.88,195.65,179.19,195.22,179.44z"/>
		<path class="st1" d="M199.37,177.74c0,0.42,0.1,0.71,0.31,0.87c0.21,0.17,0.48,0.25,0.82,0.25c0.17,0,0.34-0.02,0.49-0.05
			c0.15-0.03,0.31-0.09,0.49-0.18v0.86c-0.17,0.1-0.36,0.17-0.55,0.21c-0.2,0.05-0.41,0.07-0.66,0.07c-0.27,0-0.52-0.04-0.75-0.1
			s-0.44-0.18-0.6-0.33s-0.3-0.35-0.4-0.59c-0.09-0.24-0.14-0.53-0.14-0.87v-4.05h-0.94v-0.88h0.94v-2.03h1v2.03h2.13v0.88h-2.13
			v3.91H199.37z"/>
		<path class="st1" d="M203.3,171.47v-1.11h1.14v1.11H203.3z M203.36,179.65v-6.72h1v6.72H203.36z"/>
		<path class="st1" d="M207.69,179.65h-1v-6.72h1v1.17c0.22-0.36,0.52-0.67,0.88-0.93c0.36-0.25,0.84-0.38,1.42-0.38
			c0.41,0,0.77,0.06,1.08,0.19c0.32,0.13,0.58,0.31,0.81,0.55c0.22,0.24,0.39,0.52,0.51,0.85s0.18,0.69,0.18,1.09v4.17h-1v-3.92
			c0-0.62-0.16-1.12-0.48-1.48c-0.32-0.36-0.78-0.55-1.38-0.55c-0.29,0-0.55,0.05-0.8,0.15c-0.25,0.1-0.46,0.24-0.64,0.43
			c-0.18,0.19-0.32,0.41-0.42,0.67s-0.15,0.55-0.15,0.86L207.69,179.65L207.69,179.65z"/>
		<path class="st1" d="M220.85,179.91c-0.16,0.41-0.39,0.75-0.69,1.02s-0.66,0.48-1.08,0.62s-0.89,0.21-1.41,0.21
			c-0.56,0-1.1-0.08-1.61-0.23c-0.51-0.16-0.99-0.39-1.44-0.7l0.46-0.78c0.39,0.28,0.8,0.49,1.22,0.64s0.88,0.22,1.36,0.22
			c0.75,0,1.34-0.2,1.78-0.6c0.44-0.4,0.66-1,0.66-1.79v-0.79c-0.29,0.39-0.65,0.72-1.08,1c-0.42,0.28-0.94,0.42-1.56,0.42
			c-0.41,0-0.8-0.07-1.18-0.21c-0.38-0.14-0.71-0.35-1.01-0.62c-0.29-0.27-0.53-0.6-0.71-0.99c-0.18-0.39-0.27-0.83-0.27-1.33
			s0.09-0.94,0.27-1.33c0.18-0.39,0.41-0.73,0.71-1c0.29-0.27,0.63-0.48,1.01-0.63c0.38-0.15,0.77-0.22,1.17-0.22
			c0.31,0,0.6,0.04,0.86,0.11s0.5,0.17,0.71,0.29s0.41,0.26,0.58,0.43c0.17,0.16,0.33,0.34,0.47,0.52v-1.21h1v5.55
			C221.09,179.03,221.01,179.51,220.85,179.91z M219.92,175.02c-0.14-0.28-0.32-0.52-0.55-0.72s-0.49-0.35-0.79-0.46
			c-0.29-0.11-0.6-0.16-0.92-0.16s-0.62,0.05-0.9,0.16c-0.28,0.1-0.53,0.26-0.74,0.46c-0.21,0.2-0.38,0.44-0.5,0.72
			s-0.18,0.6-0.18,0.94c0,0.35,0.06,0.66,0.19,0.94s0.29,0.52,0.51,0.73c0.21,0.2,0.46,0.36,0.74,0.47s0.58,0.16,0.89,0.16
			c0.32,0,0.63-0.05,0.92-0.16s0.56-0.26,0.79-0.46s0.41-0.44,0.55-0.72s0.21-0.6,0.21-0.94S220.06,175.3,219.92,175.02z"/>
	</g>
	<g class="st0">
		<path class="st1" d="M236.52,179.39c-0.65,0.28-1.38,0.42-2.21,0.42c-0.71,0-1.36-0.12-1.94-0.35c-0.58-0.23-1.09-0.56-1.51-0.97
			c-0.42-0.42-0.75-0.91-0.98-1.48c-0.23-0.57-0.35-1.2-0.35-1.87v-0.03c0-0.65,0.12-1.26,0.36-1.83s0.57-1.07,0.99-1.49
			c0.42-0.43,0.93-0.77,1.51-1.01c0.58-0.25,1.22-0.37,1.91-0.37c0.41,0,0.78,0.03,1.11,0.08c0.33,0.06,0.64,0.14,0.93,0.24
			s0.55,0.23,0.81,0.39c0.25,0.16,0.49,0.33,0.73,0.53l-1.26,1.52c-0.17-0.15-0.35-0.28-0.52-0.39s-0.35-0.21-0.54-0.29
			s-0.39-0.14-0.6-0.18c-0.22-0.04-0.46-0.06-0.71-0.06c-0.36,0-0.7,0.08-1.02,0.23s-0.59,0.36-0.83,0.61
			c-0.24,0.26-0.42,0.56-0.56,0.9c-0.13,0.34-0.2,0.71-0.2,1.1v0.03c0,0.42,0.07,0.8,0.2,1.15c0.13,0.35,0.33,0.66,0.57,0.92
			s0.54,0.46,0.87,0.61c0.33,0.14,0.7,0.21,1.11,0.21c0.75,0,1.37-0.18,1.88-0.55v-1.31h-2.01v-1.73h3.95v3.95
			C237.72,178.76,237.17,179.1,236.52,179.39z"/>
		<path class="st1" d="M246.82,177.59c-0.19,0.44-0.46,0.82-0.79,1.15c-0.34,0.33-0.74,0.59-1.2,0.78s-0.96,0.29-1.51,0.29
			c-0.54,0-1.04-0.09-1.49-0.28c-0.46-0.19-0.86-0.44-1.19-0.77c-0.33-0.32-0.6-0.71-0.79-1.14c-0.19-0.44-0.29-0.91-0.29-1.41
			v-0.03c0-0.5,0.09-0.97,0.29-1.41s0.46-0.82,0.79-1.15c0.34-0.33,0.74-0.59,1.2-0.78c0.46-0.19,0.96-0.29,1.51-0.29
			c0.54,0,1.04,0.09,1.49,0.28c0.46,0.19,0.86,0.44,1.19,0.77c0.33,0.32,0.6,0.71,0.79,1.14s0.29,0.91,0.29,1.41v0.03
			C247.1,176.69,247.01,177.16,246.82,177.59z M245.16,176.18c0-0.26-0.04-0.5-0.13-0.73c-0.09-0.23-0.21-0.43-0.38-0.61
			c-0.17-0.18-0.36-0.32-0.58-0.42c-0.23-0.1-0.47-0.16-0.74-0.16c-0.29,0-0.54,0.05-0.76,0.15s-0.41,0.24-0.57,0.41
			s-0.28,0.38-0.36,0.6s-0.12,0.47-0.12,0.73v0.03c0,0.26,0.04,0.5,0.13,0.73c0.09,0.23,0.21,0.43,0.38,0.61
			c0.16,0.18,0.36,0.32,0.58,0.42c0.22,0.1,0.47,0.16,0.75,0.16c0.29,0,0.54-0.05,0.76-0.15c0.22-0.1,0.41-0.24,0.57-0.41
			s0.28-0.37,0.36-0.6c0.08-0.23,0.12-0.47,0.12-0.73L245.16,176.18L245.16,176.18z"/>
		<path class="st1" d="M255.45,177.59c-0.19,0.44-0.46,0.82-0.79,1.15c-0.34,0.33-0.74,0.59-1.2,0.78s-0.96,0.29-1.51,0.29
			c-0.54,0-1.04-0.09-1.49-0.28c-0.46-0.19-0.86-0.44-1.19-0.77c-0.33-0.32-0.6-0.71-0.79-1.14c-0.19-0.44-0.29-0.91-0.29-1.41
			v-0.03c0-0.5,0.09-0.97,0.29-1.41s0.46-0.82,0.79-1.15c0.34-0.33,0.74-0.59,1.2-0.78c0.46-0.19,0.96-0.29,1.51-0.29
			c0.54,0,1.04,0.09,1.49,0.28c0.46,0.19,0.86,0.44,1.19,0.77c0.33,0.32,0.6,0.71,0.79,1.14s0.29,0.91,0.29,1.41v0.03
			C255.73,176.69,255.64,177.16,255.45,177.59z M253.78,176.18c0-0.26-0.04-0.5-0.13-0.73c-0.09-0.23-0.21-0.43-0.38-0.61
			c-0.17-0.18-0.36-0.32-0.58-0.42c-0.23-0.1-0.47-0.16-0.74-0.16c-0.29,0-0.54,0.05-0.76,0.15s-0.41,0.24-0.57,0.41
			s-0.28,0.38-0.36,0.6s-0.12,0.47-0.12,0.73v0.03c0,0.26,0.04,0.5,0.13,0.73c0.09,0.23,0.21,0.43,0.38,0.61
			c0.16,0.18,0.36,0.32,0.58,0.42c0.22,0.1,0.47,0.16,0.75,0.16c0.29,0,0.54-0.05,0.76-0.15c0.22-0.1,0.41-0.24,0.57-0.41
			s0.28-0.37,0.36-0.6c0.08-0.23,0.12-0.47,0.12-0.73L253.78,176.18L253.78,176.18z"/>
		<path class="st1" d="M262.19,179.65v-0.99c-0.24,0.33-0.54,0.6-0.88,0.81c-0.34,0.21-0.77,0.32-1.29,0.32
			c-0.41,0-0.8-0.08-1.18-0.23c-0.38-0.16-0.72-0.39-1.01-0.7s-0.53-0.68-0.71-1.13c-0.18-0.45-0.27-0.96-0.27-1.54v-0.03
			c0-0.58,0.09-1.09,0.27-1.54s0.41-0.82,0.7-1.13s0.63-0.54,1.01-0.7s0.78-0.23,1.2-0.23c0.53,0,0.96,0.1,1.31,0.31
			c0.34,0.21,0.63,0.45,0.86,0.72v-3.42h1.98v9.49h-1.99V179.65z M262.22,176.16c0-0.29-0.05-0.55-0.14-0.79
			c-0.09-0.24-0.21-0.44-0.36-0.62c-0.15-0.17-0.33-0.3-0.53-0.39s-0.42-0.14-0.66-0.14c-0.23,0-0.45,0.05-0.66,0.14
			c-0.2,0.09-0.38,0.22-0.54,0.39s-0.28,0.37-0.37,0.61s-0.14,0.5-0.14,0.8v0.03c0,0.29,0.05,0.55,0.14,0.79
			c0.09,0.24,0.21,0.44,0.37,0.61s0.34,0.3,0.54,0.39s0.42,0.14,0.66,0.14c0.23,0,0.45-0.05,0.66-0.14c0.2-0.09,0.38-0.22,0.53-0.39
			s0.27-0.38,0.36-0.61c0.09-0.24,0.14-0.5,0.14-0.79V176.16z"/>
		<path class="st1" d="M275.73,179.65V176h-3.69v3.65h-2v-9.1h2v3.6h3.69v-3.6h2v9.1H275.73z"/>
		<path class="st1" d="M286.2,176.61c0,0.07-0.01,0.15-0.02,0.25h-4.85c0.1,0.45,0.29,0.79,0.59,1.02c0.3,0.23,0.67,0.34,1.11,0.34
			c0.33,0,0.62-0.06,0.88-0.17s0.53-0.29,0.81-0.55l1.13,1c-0.33,0.41-0.73,0.73-1.2,0.96s-1.02,0.34-1.65,0.34
			c-0.52,0-1-0.09-1.45-0.26s-0.83-0.42-1.16-0.74c-0.33-0.32-0.58-0.7-0.76-1.14s-0.27-0.92-0.27-1.46v-0.03
			c0-0.49,0.08-0.96,0.25-1.4c0.17-0.44,0.41-0.83,0.71-1.16s0.67-0.59,1.09-0.78c0.42-0.19,0.88-0.29,1.4-0.29
			c0.58,0,1.08,0.1,1.51,0.31c0.42,0.21,0.78,0.49,1.06,0.84s0.49,0.75,0.62,1.21c0.13,0.45,0.2,0.93,0.2,1.42v0.03
			C286.21,176.46,286.2,176.54,286.2,176.61z M283.82,174.55c-0.25-0.27-0.58-0.41-1-0.41s-0.75,0.13-1.01,0.4
			c-0.26,0.27-0.42,0.63-0.5,1.08h2.98C284.22,175.18,284.07,174.82,283.82,174.55z"/>
		<path class="st1" d="M291.75,179.65v-0.75c-0.24,0.27-0.53,0.48-0.87,0.64s-0.75,0.24-1.23,0.24c-0.33,0-0.64-0.05-0.93-0.14
			s-0.54-0.23-0.76-0.41c-0.22-0.18-0.39-0.4-0.51-0.67c-0.13-0.26-0.19-0.57-0.19-0.92v-0.03c0-0.38,0.07-0.71,0.21-0.99
			s0.33-0.51,0.58-0.69c0.25-0.18,0.54-0.32,0.88-0.41s0.72-0.14,1.14-0.14c0.36,0,0.67,0.03,0.93,0.08
			c0.26,0.05,0.52,0.12,0.77,0.21v-0.12c0-0.42-0.12-0.73-0.38-0.95c-0.25-0.22-0.62-0.33-1.12-0.33c-0.38,0-0.72,0.03-1.01,0.1
			s-0.6,0.16-0.92,0.28l-0.49-1.51c0.38-0.17,0.78-0.3,1.2-0.4c0.42-0.1,0.92-0.16,1.51-0.16c1.08,0,1.87,0.26,2.37,0.79
			c0.49,0.53,0.74,1.27,0.74,2.21v4.04h-1.92V179.65z M291.79,176.85c-0.17-0.08-0.37-0.14-0.58-0.19s-0.44-0.07-0.68-0.07
			c-0.42,0-0.76,0.08-1,0.25s-0.36,0.4-0.36,0.71v0.03c0,0.27,0.1,0.48,0.3,0.62s0.46,0.22,0.78,0.22c0.47,0,0.84-0.11,1.12-0.34
			s0.42-0.52,0.42-0.88L291.79,176.85L291.79,176.85z"/>
		<path class="st1" d="M295.46,179.65v-9.49h1.98v9.49H295.46z"/>
		<path class="st1" d="M302.51,179.66c-0.25,0.07-0.54,0.11-0.87,0.11c-0.3,0-0.58-0.03-0.83-0.1s-0.46-0.18-0.64-0.34
			c-0.18-0.16-0.32-0.38-0.42-0.64s-0.15-0.6-0.15-1.01v-3.3h-0.83v-1.69h0.83v-1.78h1.97v1.78h1.64v1.69h-1.64v2.98
			c0,0.45,0.21,0.68,0.64,0.68c0.35,0,0.67-0.08,0.97-0.25v1.58C303,179.49,302.77,179.59,302.51,179.66z"/>
		<path class="st1" d="M309.09,179.65v-3.88c0-0.47-0.1-0.82-0.31-1.06s-0.5-0.36-0.88-0.36s-0.68,0.12-0.9,0.36
			s-0.33,0.59-0.33,1.06v3.88h-1.98v-9.49h1.98v3.52c0.11-0.15,0.24-0.29,0.37-0.43c0.13-0.13,0.28-0.25,0.45-0.36
			c0.17-0.1,0.35-0.19,0.55-0.25c0.2-0.06,0.42-0.09,0.68-0.09c0.75,0,1.34,0.23,1.75,0.69s0.62,1.09,0.62,1.9v4.51H309.09z"/>
		<path class="st1" d="M315.16,170.56v0.26l-0.61,5.74h-1.09l-0.61-5.74v-0.26H315.16z M312.95,179.65v-2.08h2.09v2.08H312.95z"/>
	</g>
	<g>
		<g>
			<g>
				<g>
					<defs>
						<path id="SVGID_1_" d="M137.54,99.98c-16.13,21.36-71.27,51.85-46.13,89.35c0,0,24.58-18.58,28.4-23.56
							s18.91-22.56,24.39-31.52c5.47-8.96,7.63-28.2,7.63-28.2L137.54,99.98z"/>
					</defs>
					<clipPath id="SVGID_00000164484611082281526680000009449546658597851804_">
						<use xlink:href="#SVGID_1_"  style="overflow:visible;"/>
					</clipPath>
					<defs>
						<filter id="Adobe_OpacityMaskFilter" filterUnits="userSpaceOnUse" x="66.26" y="99.98" width="85.56" height="89.35">
							<feColorMatrix  type="matrix" values="1 0 0 0 0  0 1 0 0 0  0 0 1 0 0  0 0 0 1 0"/>
						</filter>
					</defs>
					
						<mask maskUnits="userSpaceOnUse" x="66.26" y="99.98" width="85.56" height="89.35" id="SVGID_00000072980723114020129600000005105069018605308044_">
						<g class="st2">
							<g>
								<g>
									<defs>
										<path id="SVGID_00000021819441516610767850000013349633413772056484_" d="M137.54,99.98
											c-16.13,21.36-71.27,51.85-46.13,89.35c0,0,24.58-18.58,28.4-23.56s18.91-22.56,24.39-31.52
											c5.47-8.96,7.63-28.2,7.63-28.2L137.54,99.98z"/>
									</defs>
									
										<clipPath id="SVGID_00000005959633161046939010000003146413903913849250_" style="clip-path:url(#SVGID_00000164484611082281526680000009449546658597851804_);">
										<use xlink:href="#SVGID_00000021819441516610767850000013349633413772056484_"  style="overflow:visible;"/>
									</clipPath>
								</g>
								<g>
									<defs>
										<path id="SVGID_00000048464570439764760170000011369454204393098123_" d="M137.54,99.98
											c-16.13,21.36-71.27,51.85-46.13,89.35c0,0,24.58-18.58,28.4-23.56s18.91-22.56,24.39-31.52
											c5.47-8.96,7.63-28.2,7.63-28.2L137.54,99.98z"/>
									</defs>
									<defs>
										<path id="SVGID_00000175296306620845142270000000716959182449531023_" d="M137.54,99.98
											c-16.13,21.36-71.27,51.85-46.13,89.35c0,0,24.58-18.58,28.4-23.56s18.91-22.56,24.39-31.52
											c5.47-8.96,7.63-28.2,7.63-28.2L137.54,99.98z"/>
									</defs>
									
										<clipPath id="SVGID_00000128443374572470049670000017803988292309566864_" style="clip-path:url(#SVGID_00000164484611082281526680000009449546658597851804_);">
										<use xlink:href="#SVGID_00000048464570439764760170000011369454204393098123_"  style="overflow:visible;"/>
									</clipPath>
									
										<clipPath id="SVGID_00000132781259727567285100000018065965320804972443_" style="clip-path:url(#SVGID_00000128443374572470049670000017803988292309566864_);">
										<use xlink:href="#SVGID_00000175296306620845142270000000716959182449531023_"  style="overflow:visible;"/>
									</clipPath>
									
										<linearGradient id="SVGID_00000103228205249034384750000017221387696389562809_" gradientUnits="userSpaceOnUse" x1="-2232.7839" y1="-80.0877" x2="-2189.4309" y2="-351.1281" gradientTransform="matrix(1 0 0 1 2321.0195 413.2343)">
										<stop  offset="0" style="stop-color:#FFFFFF"/>
										<stop  offset="1" style="stop-color:#000000"/>
									</linearGradient>
									
										<rect x="84.94" y="99.98" style="clip-path:url(#SVGID_00000132781259727567285100000018065965320804972443_);fill:url(#SVGID_00000103228205249034384750000017221387696389562809_);" width="66.89" height="89.35"/>
								</g>
							</g>
						</g>
					</mask>
					
						<linearGradient id="SVGID_00000162354741052584779530000011234235614880371386_" gradientUnits="userSpaceOnUse" x1="-180.6824" y1="-356.0075" x2="-195.3575" y2="-454.6497" gradientTransform="matrix(1 0 0 1 297.5625 553.3619)">
						<stop  offset="0" style="stop-color:#F7514D"/>
						<stop  offset="1" style="stop-color:#FF6B3E"/>
					</linearGradient>
					
						<rect x="66.26" y="99.98" style="clip-path:url(#SVGID_00000164484611082281526680000009449546658597851804_);mask:url(#SVGID_00000072980723114020129600000005105069018605308044_);fill:url(#SVGID_00000162354741052584779530000011234235614880371386_);" width="85.56" height="89.35"/>
				</g>
			</g>
		</g>
		<g>
			<g>
				<g>
					<defs>
						<path id="SVGID_00000091713340872365592350000015258391651749722530_" d="M137.54,99.98h40.35c4.01,0,7.29,3.28,7.29,7.29
							v31.96c0,4.01-3.28,7.29-7.29,7.29h-40.37v40.37c0,4.01-3.28,7.29-7.29,7.29H98.27c-4.01,0-7.29-3.28-7.29-7.29
							c0-27.69,8.43-45.74,35.53-62.37l10.65,8.34L137.54,99.98z"/>
					</defs>
					<clipPath id="SVGID_00000150086533847217477180000010454030665975052970_">
						<use xlink:href="#SVGID_00000091713340872365592350000015258391651749722530_"  style="overflow:visible;"/>
					</clipPath>
					
						<rect x="90.98" y="99.98" style="clip-path:url(#SVGID_00000150086533847217477180000010454030665975052970_);fill:#F7514D;" width="94.19" height="94.19"/>
				</g>
			</g>
		</g>
		<path class="st8" d="M95.41,193.58c-2.6-1.12-4.43-3.71-4.43-6.7c0-27.69,8.43-45.74,35.53-62.37l10.65,8.34l-11.25-3.54
			C125.92,129.31,87.06,149.68,95.41,193.58"/>
		<path class="st9" d="M137.54,99.98h40.35c4.01,0,7.29,3.28,7.29,7.29v31.96c0,4.01-3.28,7.29-7.29,7.29h-27.08
			c-0.31-0.63-0.69-1.35-1.16-2.2c-4.21-7.57-1.68-5.05-5.05-11.49c-1.71-3.28-4.22-4.82-7.36-5.82L137.54,99.98z"/>
		<path class="st10" d="M149.58,99.98h28.3c4.01,0,7.29,3.28,7.29,7.29v31.96c0,2.12-0.92,4.04-2.38,5.38
			c-15.07-7-21.94-10.94-26.14-28.6C154.54,107.11,152.7,103.11,149.58,99.98"/>
		<path class="st11" d="M98.27,194.17h31.96c4.01,0,7.29-3.28,7.29-7.29V172c-1.35-2.67-2.65-5.38-3.85-8.07
			c-7.01-15.7-13.74-8.13-24.11-13.74c-1.48-0.8-2.71-1.56-3.74-2.32l-0.89,0.51c0,0-15.12,18.57-9.51,45.19c5.6,26.63,0,0,0,0
			L98.27,194.17"/>
		<path class="st12" d="M127.27,194.17h-29c-4.01,0-7.29-3.28-7.29-7.29c0-11.09,1.36-20.64,4.72-29.16
			c4.32,9.02-2.4,15.75,7.41,20.8s16.82,5.09,20.46,10.37C124.81,190.69,126.12,192.44,127.27,194.17"/>
		<path class="st13" d="M98.27,52.32h31.96c4.01,0,7.29,3.28,7.29,7.29v40.37l-35.11,0.98l10.5,12.34
			c-18.15,24.4-41.63,33.21-62.3,33.21c-4.01,0-7.29-3.28-7.29-7.29v-31.96c0-4.01,3.28-7.29,7.29-7.29h40.37V59.6
			C90.98,55.6,94.26,52.32,98.27,52.32"/>
		<path class="st14" d="M98.27,52.32h31.96c4.01,0,7.29,3.28,7.29,7.29v40.37l-25.72,0.72c-2.81-10.26-2.52-7.96-12.05-13.01
			c-3.28-1.73-6.16-3.07-8.76-4.38v-23.7C90.98,55.6,94.26,52.32,98.27,52.32"/>
		<path class="st10" d="M104.16,52.32h26.07c4.01,0,7.29,3.28,7.29,7.29v31.54c-0.78-0.55-1.59-1.15-2.45-1.78
			c-14.3-10.61-11.21-7.01-20.74-21.02C108.33,59.54,107.66,56.37,104.16,52.32"/>
		<path class="st11" d="M96.53,130.33c-14.74,11.63-31.05,16.19-45.91,16.19c-4.01,0-7.29-3.28-7.29-7.29v-31.96
			c0-4.01,3.28-7.29,7.29-7.29H73.3c8.45,6.84,16.88,15.12,20.28,23.03C94.77,125.77,95.72,128.19,96.53,130.33"/>
		<path class="st8" d="M75.39,142.16c-8.36,3.03-16.78,4.35-24.77,4.35c-4.01,0-7.29-3.28-7.29-7.29v-31.73
			c11.58,6.16,17.37,1.95,21.38,12.72C69.19,132.26,65.61,133.57,75.39,142.16"/>
	</g>
	<g>
		<g class="st0">
			<path class="st15" d="M199.13,125.68v20.25h-5.08v-44.99h5.08v19.99h25.97v-19.99h5.08v44.99h-5.08v-20.25
				C225.1,125.68,199.13,125.68,199.13,125.68z"/>
			<path class="st15" d="M260.7,112.69h4.89v33.23h-4.89v-5.78c-1.11,1.8-2.57,3.33-4.37,4.59c-1.8,1.26-4.14,1.9-7.01,1.9
				c-2.01,0-3.8-0.32-5.37-0.96s-2.89-1.55-3.98-2.73s-1.93-2.58-2.51-4.21s-0.87-3.43-0.87-5.4V112.7h4.95v19.41
				c0,3.08,0.79,5.53,2.38,7.33c1.58,1.8,3.86,2.7,6.81,2.7c1.41,0,2.73-0.25,3.95-0.74s2.27-1.2,3.15-2.12s1.57-2.02,2.09-3.31
				c0.51-1.29,0.77-2.7,0.77-4.24L260.7,112.69L260.7,112.69z"/>
			<path class="st15" d="M303.96,136.6c-0.9,2.14-2.09,3.95-3.57,5.43s-3.17,2.61-5.08,3.41c-1.91,0.79-3.87,1.19-5.88,1.19
				c-1.54,0-2.96-0.19-4.24-0.58c-1.29-0.39-2.44-0.9-3.47-1.54s-1.96-1.39-2.8-2.25c-0.83-0.86-1.57-1.76-2.22-2.7v6.36h-4.95V99
				h4.95v20.38c0.68-0.99,1.45-1.93,2.28-2.83c0.84-0.9,1.77-1.68,2.8-2.35c1.03-0.66,2.17-1.2,3.44-1.61
				c1.26-0.41,2.67-0.61,4.21-0.61c1.97,0,3.91,0.39,5.82,1.16c1.91,0.77,3.61,1.9,5.11,3.37s2.7,3.29,3.6,5.43s1.35,4.58,1.35,7.33
				S304.86,134.46,303.96,136.6z M299.3,124.03c-0.62-1.58-1.47-2.93-2.54-4.06s-2.31-1.99-3.73-2.59c-1.41-0.6-2.91-0.9-4.5-0.9
				c-1.54,0-3.03,0.31-4.47,0.93s-2.72,1.48-3.86,2.59c-1.14,1.11-2.04,2.45-2.7,4.03s-1,3.33-1,5.24c0,1.92,0.33,3.68,1,5.28
				s1.56,2.95,2.7,4.06c1.13,1.11,2.42,1.97,3.86,2.59c1.43,0.62,2.92,0.93,4.47,0.93c1.58,0,3.09-0.29,4.53-0.86
				c1.44-0.58,2.68-1.41,3.73-2.49c1.05-1.09,1.89-2.43,2.51-4.03s0.93-3.4,0.93-5.4C300.23,127.38,299.92,125.61,299.3,124.03z"/>
		</g>
	</g>
	<g>
		<g class="st0">
			<path class="st15" d="M176.2,81.84c-0.84,1.99-2.03,3.71-3.57,5.17c-1.54,1.46-3.37,2.61-5.5,3.45s-4.47,1.26-7.02,1.26h-12.73
				V59.09h12.73c2.55,0,4.89,0.41,7.02,1.24c2.13,0.82,3.96,1.97,5.5,3.43s2.73,3.18,3.57,5.15c0.84,1.97,1.26,4.11,1.26,6.41v0.09
				C177.46,77.71,177.04,79.86,176.2,81.84z M169.95,75.41c0-1.43-0.24-2.75-0.72-3.96s-1.15-2.25-2-3.12
				c-0.86-0.87-1.89-1.55-3.1-2.03c-1.21-0.48-2.55-0.72-4.01-0.72h-5.55v19.67h5.55c1.46,0,2.8-0.23,4.01-0.7
				c1.21-0.47,2.25-1.13,3.1-2s1.52-1.9,2-3.08s0.72-2.5,0.72-3.96V75.41z"/>
			<path class="st15" d="M206.92,84.34c-0.68,1.57-1.63,2.95-2.84,4.13c-1.21,1.18-2.64,2.11-4.29,2.8
				c-1.65,0.68-3.45,1.03-5.41,1.03c-1.93,0-3.71-0.33-5.36-1s-3.07-1.58-4.27-2.75s-2.14-2.53-2.82-4.1
				c-0.68-1.57-1.03-3.26-1.03-5.06V79.3c0-1.8,0.34-3.49,1.03-5.06c0.68-1.57,1.63-2.94,2.84-4.13c1.21-1.18,2.64-2.11,4.29-2.8
				s3.45-1.03,5.41-1.03c1.93,0,3.71,0.33,5.36,1s3.07,1.58,4.27,2.75s2.14,2.53,2.82,4.1c0.68,1.57,1.03,3.26,1.03,5.06v0.09
				C207.95,81.08,207.61,82.77,206.92,84.34z M200.96,79.28c0-0.93-0.16-1.81-0.47-2.63s-0.76-1.55-1.35-2.19
				c-0.59-0.64-1.29-1.14-2.1-1.52c-0.81-0.37-1.69-0.56-2.66-0.56c-1.03,0-1.94,0.18-2.73,0.54s-1.47,0.85-2.03,1.47
				s-0.99,1.34-1.28,2.17c-0.3,0.82-0.44,1.7-0.44,2.63v0.09c0,0.93,0.16,1.81,0.47,2.63s0.76,1.55,1.35,2.19
				c0.59,0.64,1.28,1.14,2.07,1.51s1.69,0.56,2.68,0.56c1.03,0,1.93-0.18,2.73-0.54c0.79-0.36,1.47-0.85,2.03-1.47
				s0.99-1.34,1.28-2.17c0.29-0.82,0.44-1.7,0.44-2.63v-0.08H200.96z"/>
			<path class="st15" d="M229.95,91.01c-1.55,0.85-3.57,1.28-6.06,1.28c-1.86,0-3.6-0.34-5.2-1.03c-1.6-0.68-2.98-1.61-4.13-2.77
				c-1.15-1.17-2.05-2.53-2.7-4.1s-0.98-3.24-0.98-5.01v-0.09c0-1.77,0.33-3.45,0.98-5.04c0.65-1.58,1.55-2.97,2.7-4.15
				s2.53-2.11,4.13-2.8s3.36-1.03,5.29-1.03c2.36,0,4.32,0.37,5.87,1.12c1.55,0.75,2.92,1.77,4.1,3.08l-4.34,4.66
				c-0.81-0.84-1.64-1.51-2.49-2c-0.86-0.5-1.92-0.75-3.19-0.75c-0.9,0-1.72,0.18-2.45,0.54s-1.37,0.85-1.91,1.47
				c-0.54,0.62-0.96,1.34-1.26,2.17c-0.3,0.82-0.44,1.7-0.44,2.63v0.09c0,0.96,0.15,1.86,0.44,2.7c0.29,0.84,0.72,1.57,1.28,2.19
				s1.23,1.11,2,1.47c0.78,0.36,1.65,0.54,2.61,0.54c1.18,0,2.21-0.24,3.1-0.72s1.76-1.13,2.63-1.93l4.15,4.2
				C232.89,89.05,231.51,90.15,229.95,91.01z"/>
			<path class="st15" d="M249.3,91.75c-0.9,0.26-1.94,0.4-3.12,0.4c-1.09,0-2.07-0.12-2.96-0.35c-0.89-0.23-1.65-0.65-2.28-1.24
				c-0.64-0.59-1.13-1.36-1.49-2.31s-0.54-2.15-0.54-3.61V72.8h-2.98v-6.06h2.98v-6.39H246v6.39h5.88v6.06H246v10.68
				c0,1.62,0.76,2.42,2.29,2.42c1.24,0,2.41-0.3,3.5-0.89v5.69C251.03,91.14,250.2,91.49,249.3,91.75z"/>
		</g>
		<g class="st0">
			<path class="st15" d="M277.37,84.34c-0.68,1.57-1.63,2.95-2.84,4.13s-2.64,2.11-4.29,2.8c-1.65,0.68-3.45,1.03-5.41,1.03
				c-1.93,0-3.71-0.33-5.36-1s-3.07-1.58-4.27-2.75s-2.14-2.53-2.82-4.1s-1.03-3.26-1.03-5.06V79.3c0-1.8,0.34-3.49,1.03-5.06
				s1.63-2.94,2.84-4.13c1.21-1.18,2.64-2.11,4.29-2.8s3.45-1.03,5.41-1.03c1.93,0,3.71,0.33,5.36,1s3.07,1.58,4.27,2.75
				c1.2,1.17,2.14,2.53,2.82,4.1s1.03,3.26,1.03,5.06v0.09C278.39,81.08,278.05,82.77,277.37,84.34z M271.4,79.28
				c0-0.93-0.16-1.81-0.47-2.63s-0.76-1.55-1.35-2.19s-1.29-1.14-2.1-1.52c-0.81-0.37-1.69-0.56-2.66-0.56
				c-1.03,0-1.94,0.18-2.73,0.54s-1.47,0.85-2.03,1.47s-0.99,1.34-1.28,2.17c-0.3,0.82-0.44,1.7-0.44,2.63v0.09
				c0,0.93,0.16,1.81,0.47,2.63s0.76,1.55,1.35,2.19s1.28,1.14,2.07,1.51s1.69,0.56,2.68,0.56c1.03,0,1.93-0.18,2.73-0.54
				c0.79-0.36,1.47-0.85,2.03-1.47s0.99-1.34,1.28-2.17c0.29-0.82,0.44-1.7,0.44-2.63v-0.08H271.4z"/>
		</g>
		<g class="st0">
			<path class="st15" d="M295.41,73.69c-2.36,0-4.22,0.71-5.57,2.14s-2.03,3.65-2.03,6.67v9.23h-7.09V66.74h7.09v5.03
				c0.71-1.71,1.69-3.08,2.94-4.1c1.24-1.03,2.92-1.49,5.03-1.4v7.41h-0.37V73.69z"/>
		</g>
		<g class="st0">
			<path class="st15" d="M316.87,87.74c-0.48,1.01-1.16,1.84-2.03,2.49s-1.89,1.14-3.05,1.47c-1.17,0.33-2.42,0.49-3.75,0.49
				c-1.77,0-3.58-0.3-5.43-0.91s-3.61-1.56-5.29-2.87l3.03-4.66c1.37,0.99,2.73,1.74,4.08,2.24c1.35,0.5,2.62,0.75,3.8,0.75
				c1.03,0,1.78-0.17,2.26-0.51s0.72-0.79,0.72-1.35v-0.09c0-0.37-0.14-0.7-0.42-0.98c-0.28-0.28-0.66-0.52-1.14-0.72
				c-0.48-0.2-1.03-0.4-1.66-0.58s-1.27-0.39-1.96-0.61c-0.87-0.25-1.75-0.55-2.63-0.91c-0.89-0.36-1.69-0.82-2.4-1.4
				s-1.3-1.28-1.75-2.12c-0.45-0.84-0.68-1.87-0.68-3.08V74.3c0-1.27,0.24-2.4,0.72-3.38c0.48-0.98,1.13-1.81,1.96-2.49
				c0.82-0.68,1.79-1.2,2.89-1.54c1.1-0.34,2.29-0.51,3.57-0.51c1.58,0,3.19,0.26,4.83,0.77c1.63,0.51,3.13,1.22,4.5,2.12l-2.7,4.89
				c-1.24-0.71-2.46-1.28-3.64-1.7c-1.18-0.42-2.22-0.63-3.12-0.63c-0.87,0-1.52,0.16-1.96,0.49c-0.44,0.33-0.65,0.74-0.65,1.24
				v0.09c0,0.34,0.14,0.65,0.42,0.91s0.65,0.51,1.12,0.75c0.47,0.23,1,0.46,1.61,0.68s1.25,0.44,1.93,0.65
				c0.87,0.28,1.76,0.61,2.66,1s1.71,0.86,2.42,1.42s1.31,1.24,1.77,2.05c0.47,0.81,0.7,1.79,0.7,2.94v0.09
				C317.6,85.53,317.35,86.73,316.87,87.74z"/>
		</g>
	</g>
	<line class="st16" x1="145.94" y1="160.53" x2="317.65" y2="160.53"/>
</g>
</svg>
